<svg width="100" height="47" viewBox="0 0 100 47" fill="none" xmlns="http://www.w3.org/2000/svg">
<path fill-rule="evenodd" clip-rule="evenodd" d="M9.1954 13.7931C11.7346 13.7931 13.7931 11.7346 13.7931 9.1954C13.7931 6.65616 11.7346 4.5977 9.1954 4.5977C6.65616 4.5977 4.5977 6.65616 4.5977 9.1954C4.5977 11.7346 6.65616 13.7931 9.1954 13.7931ZM9.1954 18.3908C14.2739 18.3908 18.3908 14.2739 18.3908 9.1954C18.3908 4.11692 14.2739 0 9.1954 0C4.11692 0 0 4.11692 0 9.1954C0 14.2739 4.11692 18.3908 9.1954 18.3908Z" fill="#F4D366"/>
<path d="M100 36.7813C100 41.8598 95.8831 45.9767 90.8046 45.9767C85.7261 45.9767 81.6092 41.8598 81.6092 36.7813C81.6092 31.7029 85.7261 27.5859 90.8046 27.5859C95.8831 27.5859 100 31.7029 100 36.7813Z" fill="#F4D366"/>
<path d="M34.065 4.33291C36.7706 0.0351349 42.4479 -1.25562 46.7457 1.44994C51.0435 4.1555 52.3342 9.83283 49.6287 14.1306L31.9568 42.2024C29.2512 46.5002 23.5739 47.791 19.2761 45.0854C14.9783 42.3799 13.6876 36.7025 16.3931 32.4048L34.065 4.33291Z" fill="white"/>
<path d="M67.3983 4.55166C70.1039 0.253885 75.7812 -1.03687 80.079 1.66869C84.3768 4.37425 85.6675 10.0516 82.962 14.3494L65.2901 42.4212C62.5845 46.719 56.9072 48.0097 52.6094 45.3042C48.3116 42.5986 47.0209 36.9213 49.7264 32.6235L67.3983 4.55166Z" fill="white"/>
</svg>
