<svg width="16" height="10" viewBox="0 0 16 10" fill="none" xmlns="http://www.w3.org/2000/svg">
<path d="M1.65376 0C1.5006 0 1.35454 0.0304233 1.22106 0.0841352L7.65741 5.81736C7.88176 6.01742 8.1307 6.0172 8.35453 5.81736L14.7788 0.0841352C14.6454 0.0304233 14.4993 0 14.3461 0H1.65376ZM0.511923 0.991581C0.504615 1.04416 0.5 1.09922 0.5 1.15385V8.84622C0.5 9.00403 0.533289 9.15419 0.590155 9.29094L5.03128 5.02408L0.512019 0.991581H0.511923ZM15.488 0.991581L10.9807 5.01808L15.4159 9.28493C15.4709 9.15004 15.5 9.00136 15.5 8.84622V1.15385C15.5 1.09922 15.4952 1.04416 15.4881 0.991581H15.488ZM10.1153 5.79332L9.12377 6.68275C8.49338 7.24567 7.51849 7.24473 6.88818 6.68275L5.89657 5.79932L1.52155 9.99407C1.5643 9.99887 1.6097 10 1.65376 10H14.3461C14.3881 10 14.4315 9.9981 14.4723 9.99407L10.1153 5.79332Z" fill="#F4D366"/>
</svg>
