<svg width="63" height="20" viewBox="0 0 63 20" fill="none" xmlns="http://www.w3.org/2000/svg">
<g opacity="0.2">
<path d="M27.2084 19.7121H22.1757L25.3235 0.351562H30.356L27.2084 19.7121Z" fill="white"/>
<path d="M45.4527 0.824255C44.46 0.432522 42.8855 0 40.9387 0C35.9686 0 32.4688 2.63619 32.4473 6.40515C32.406 9.18588 34.9531 10.7304 36.8581 11.6575C38.8052 12.605 39.4671 13.2234 39.4671 14.0679C39.4473 15.3649 37.8937 15.9628 36.4448 15.9628C34.4354 15.9628 33.3588 15.6545 31.7227 14.9329L31.06 14.6236L30.3557 18.9696C31.5361 19.5045 33.7108 19.9792 35.9686 20C41.2494 20 44.6873 17.4046 44.728 13.3882C44.7481 11.1842 43.4032 9.49549 40.5036 8.11552C38.7433 7.22968 37.6653 6.63236 37.6653 5.72598C37.686 4.902 38.5771 4.05804 40.5641 4.05804C42.2002 4.0167 43.4024 4.40789 44.313 4.79934L44.7682 5.00493L45.4527 0.824255Z" fill="white"/>
<path d="M52.1416 12.8533C52.5561 11.7411 54.1509 7.43643 54.1509 7.43643C54.13 7.47776 54.5646 6.30366 54.8131 5.58288L55.1648 7.2511C55.1648 7.2511 56.1179 11.8854 56.3248 12.8533C55.5383 12.8533 53.1357 12.8533 52.1416 12.8533ZM58.354 0.351562H54.4611C53.2606 0.351562 52.3486 0.701412 51.8306 1.95791L44.3551 19.7118H49.6358C49.6358 19.7118 50.5052 17.3223 50.6921 16.8076C51.2714 16.8076 56.4085 16.8076 57.1538 16.8076C57.2982 17.4873 57.7543 19.7118 57.7543 19.7118H62.4141L58.354 0.351562Z" fill="white"/>
<path d="M17.9721 0.351562L13.0434 13.5536L12.5048 10.8761C11.5936 7.78655 8.73577 4.42986 5.54663 2.76082L10.0612 19.6916H15.3832L23.2939 0.351562H17.9721Z" fill="white"/>
<path d="M8.46658 0.351562H0.369337L0.286499 0.742748C6.60286 2.34937 10.7861 6.22208 12.5047 10.8769L10.7445 1.97899C10.4547 0.742474 9.56412 0.392351 8.46658 0.351562Z" fill="white"/>
</g>
</svg>
