<svg width="33" height="20" viewBox="0 0 33 20" fill="none" xmlns="http://www.w3.org/2000/svg">
<path opacity="0.2" fill-rule="evenodd" clip-rule="evenodd" d="M30.8296 15.3049C31.825 13.7147 32.3529 11.8765 32.353 10.0005V9.9977C32.3529 8.12164 31.825 6.28345 30.8296 4.69324C29.8343 3.10303 28.4115 1.82497 26.7241 1.00515C25.0366 0.185326 23.1526 -0.143176 21.2872 0.0571913C19.4219 0.257559 17.6506 0.978712 16.1758 2.13822C17.3662 3.07374 18.3285 4.26739 18.9903 5.62911C19.6521 6.99084 19.9959 8.48508 19.9959 9.99909C19.9959 11.5131 19.6521 13.0073 18.9903 14.3691C18.3285 15.7308 17.3662 16.9244 16.1758 17.86C17.6506 19.0195 19.4219 19.7406 21.2872 19.941C23.1526 20.1413 25.0366 19.8128 26.7241 18.993C28.4115 18.1732 29.8343 16.8951 30.8296 15.3049ZM13.3606 5.63063C12.6991 6.99228 12.3559 8.48659 12.3571 10.0005C12.3555 11.5148 12.6984 13.0096 13.36 14.3718C14.0216 15.734 14.9845 16.9277 16.1757 17.8627C14.7008 19.0219 12.9295 19.7427 11.0643 19.9427C9.19906 20.1428 7.31519 19.8141 5.62795 18.9942C3.94072 18.1742 2.5182 16.8961 1.52299 15.306C0.527769 13.7158 0 11.8778 0 10.0018C0 8.12593 0.527769 6.28785 1.52299 4.69769C2.5182 3.10754 3.94072 1.82945 5.62795 1.00951C7.31519 0.189575 9.19906 -0.139139 11.0643 0.0609417C12.9295 0.261022 14.7008 0.981825 16.1757 2.14097C14.9849 3.07565 14.0222 4.26898 13.3606 5.63063Z" fill="white"/>
</svg>
