<svg width="88" height="20" viewBox="0 0 88 20" fill="none" xmlns="http://www.w3.org/2000/svg">
<g opacity="0.2">
<path d="M77.6178 0C79.2083 0 80.7214 0.363005 82.0793 1.01236C82.2923 1.10807 82.5066 1.22262 82.7189 1.33728L81.7878 2.1589L80.392 0.726112L77.9869 2.82729L76.5706 1.31794L72.1479 5.23425L74.9794 8.30989L73.874 9.26481L76.6676 12.3405L75.5621 13.295L79.5582 17.6697L81.9233 15.5301L83.9804 17.823C83.5727 18.1287 83.1265 18.435 82.6422 18.702C81.1677 19.5233 79.4605 20 77.6374 20C72.0311 20 67.4735 15.5117 67.4735 9.99141C67.4537 4.50843 72.0121 0 77.6178 0ZM75.7554 9.37967L78.1801 7.24001L80.3531 9.62782L77.9278 11.7673L75.7554 9.37967ZM77.4822 13.5061L79.8872 11.3474L82.0793 13.7351L79.6545 15.8748L77.4822 13.5061ZM74.0301 5.31092L76.4541 3.17125L78.6265 5.55906L76.2017 7.69863L74.0301 5.31092ZM78.4711 4.16436L80.2752 2.5598L81.905 4.33645L80.1009 5.95997L78.4711 4.16436ZM81.6914 11.519L83.4949 9.91436L85.1246 11.7096L83.3204 13.3152L81.6914 11.519ZM83.2818 15.1299L85.086 13.5249L86.7143 15.3015L84.9109 16.9248L83.2818 15.1299ZM84.019 6.877L85.2215 5.80712L86.3073 6.99195L85.1051 8.06144L84.019 6.877ZM82.4672 3.34294L83.6698 2.25431L84.7564 3.45759L83.553 4.52737L82.4672 3.34294ZM85.5512 10.4114L86.7537 9.34158L87.8592 10.526L86.6377 11.5955L85.5512 10.4114ZM80.1395 7.75596L81.9437 6.15129L83.5727 7.92755L81.7693 9.53251L80.1395 7.75596Z" fill="white"/>
<mask id="mask0" mask-type="alpha" maskUnits="userSpaceOnUse" x="0" y="4" width="11" height="10">
<path d="M0.286499 4.15527V13.3888H10.8885V4.15527H0.286499Z" fill="white"/>
</mask>
<g mask="url(#mask0)">
<path d="M5.60713 6.88943H5.51564L3.79796 13.3888H2.394L0.286499 4.15527H1.74318L3.20022 11.0451H3.29121L4.982 4.15527H6.14012L7.94834 11.0451H8.03939L9.36644 4.15527H10.8885L8.78049 13.3888H7.37547L5.60713 6.88943Z" fill="white"/>
</g>
<path d="M12.7367 9.4585H15.715C15.6504 8.09147 14.9866 7.54498 14.2844 7.54498C13.4909 7.54498 12.8791 8.15693 12.7367 9.4585ZM16.7555 11.9076V12.8976C16.1703 13.2361 15.3902 13.4967 14.453 13.4967C12.2682 13.4967 11.3707 12.1423 11.3707 10.0848C11.3707 8.10447 12.3721 6.67188 14.3234 6.67188C15.949 6.67188 16.9513 7.72748 16.9513 9.84977V10.3317H12.7106C12.7106 11.894 13.3476 12.5844 14.688 12.5844C15.3902 12.5844 16.0406 12.3366 16.7555 11.9076Z" fill="white"/>
<path d="M19.9769 12.4524C20.3932 12.6347 20.8489 12.6617 21.1746 12.6617C22.137 12.6617 22.8647 12.0617 22.8647 9.9525C22.8647 8.29853 22.2664 7.76454 21.3952 7.76454C20.8744 7.76454 20.4974 7.90825 19.9769 8.1942V12.4524H19.9769ZM19.9906 7.23074C20.3798 7.02306 21.0431 6.74862 21.7459 6.74862C23.3591 6.74862 24.2308 7.86858 24.2308 9.9525C24.2308 12.388 23.0598 13.5732 21.1746 13.5732C20.4846 13.5732 19.418 13.3517 18.6371 12.934V3.84465L19.9906 3.51953V7.23074H19.9906Z" fill="white"/>
<path d="M30.0855 11.4305H30.1507L32.9339 4.15039H34.5478V13.3847H33.1429V6.69015H33.0256L30.3716 13.3847H29.5398L26.8851 6.84666H26.7685V13.3847H25.5977V4.15039H27.1721L30.0855 11.4305Z" fill="white"/>
<path d="M40.2875 10.0844C40.2875 8.32643 39.5726 7.58446 38.6881 7.58446C37.8298 7.58446 37.0877 8.32644 37.0877 10.0844C37.0877 11.8688 37.765 12.5844 38.6881 12.5844C39.6112 12.5844 40.2875 11.8688 40.2875 10.0844ZM35.7224 10.0844C35.7224 7.80454 36.9715 6.67188 38.6881 6.67188C40.4057 6.67188 41.6541 7.80453 41.6541 10.0844C41.6541 12.311 40.4705 13.4967 38.6881 13.4967C36.9061 13.4967 35.7224 12.311 35.7224 10.0844Z" fill="white"/>
<path d="M42.683 7.63633C43.2683 7.28413 44.5046 6.67188 46.0002 6.67188C47.561 6.67188 48.1453 7.28413 48.1453 8.62517V13.3403H46.7934V8.92509C46.7934 7.89648 46.287 7.71417 45.6227 7.71417C45.103 7.71417 44.4388 7.94894 44.0359 8.1833V13.3403H42.683V7.63633H42.683Z" fill="white"/>
<path d="M51.0088 9.4585H53.9874C53.9234 8.09147 53.2593 7.54498 52.5568 7.54498C51.7631 7.54498 51.1525 8.15693 51.0088 9.4585ZM55.0278 11.9076V12.8976C54.4428 13.2361 53.6623 13.4967 52.7255 13.4967C50.5414 13.4967 49.6433 12.1423 49.6433 10.0848C49.6433 8.10447 50.6444 6.67188 52.5958 6.67188C54.2224 6.67188 55.2244 7.72748 55.2244 9.84977V10.3317H50.9833C50.9833 11.894 51.6207 12.5844 52.9606 12.5844C53.6623 12.5844 54.3137 12.3366 55.0278 11.9076Z" fill="white"/>
<path d="M60.6274 6.67188H62.0197L59.665 13.1827C59.0137 14.9801 58.2211 15.9179 56.7254 15.9179V14.8507C57.6105 14.8507 58.156 14.1471 58.4689 13.1827L55.9712 6.67188H57.4023L59.0673 11.4644H59.1453L60.6274 6.67188Z" fill="white"/>
</g>
</svg>
