<svg width="14" height="18" viewBox="0 0 14 18" fill="none" xmlns="http://www.w3.org/2000/svg">
<path fill-rule="evenodd" clip-rule="evenodd" d="M5.53801 2.48701C4.965 1.2767 4.91291 0.224251 2.98551 0.855719C2.20414 1.11883 1.7874 1.64505 1.31857 2.2239C-0.348364 4.06568 0.120462 8.11761 2.56878 12.0117C5.06919 15.8531 8.55934 17.958 10.9035 17.1687C11.6328 16.9055 12.3099 16.8003 12.8309 16.1688C14.1853 14.6428 13.2997 14.1692 12.4141 13.1694C11.6328 12.2748 11.0077 11.3276 9.65327 12.1169C9.4449 12.38 8.29888 13.5377 7.72587 13.4325C6.8924 13.0115 5.69429 11.8012 4.86082 10.4856C4.07944 9.22268 3.40225 7.59138 3.40225 6.6968C3.55852 6.11796 5.01709 5.53911 5.38174 5.43387C6.63194 4.48666 6.05893 3.53946 5.53801 2.48701Z" fill="#F4D366"/>
</svg>
