<svg width="58" height="62" viewBox="0 0 58 62" fill="none" xmlns="http://www.w3.org/2000/svg">
<path d="M21.4579 14.1103C21.081 15.0269 20.6573 15.9276 20.3362 16.8644C18.6702 21.7138 17.0567 26.5817 15.3541 31.4179C15.0466 32.2011 14.5731 32.9076 13.9661 33.4888C13.6626 33.7789 13.27 33.9577 12.8514 33.9965C12.4328 34.0352 12.0127 33.9316 11.6589 33.7023C11.294 33.5288 10.9896 33.249 10.7857 32.8996C10.5819 32.5503 10.4882 32.1479 10.5169 31.7453C10.6007 30.5898 10.7596 29.4364 10.9522 28.2935C11.9001 22.2202 13.476 16.2649 15.6545 10.5234C16.4959 8.19069 17.7952 6.05202 19.476 4.23305C20.8189 2.92666 22.537 2.07373 24.3913 1.79292C25.069 1.70242 25.7581 1.85193 26.3396 2.21564C26.921 2.57935 27.3582 3.13439 27.5757 3.78486C28.5069 6.08035 29.3192 8.42196 30.0093 10.8003C31.6558 16.5693 33.6875 22.2227 36.0904 27.7223C36.7752 29.3019 36.3173 30.7025 34.9885 31.0284C33.8358 31.3112 32.9104 30.7343 32.3291 29.3269C31.6749 27.7421 31.0044 26.1623 30.4169 24.5529C29.1271 21.0194 27.8849 17.4685 26.6242 13.9245C26.5182 13.5532 26.3405 13.2061 26.1012 12.9028C26.0419 13.1081 25.999 13.3177 25.9729 13.5299C25.3611 22.88 26.1181 32.2758 28.2198 41.4194C29.2362 45.7744 30.7581 49.9976 32.7544 54.0026C33.282 54.8988 33.8718 55.757 34.5195 56.5708C34.7316 56.87 35.0056 57.1285 35.1961 57.4394C35.4859 57.8791 35.6127 58.4061 35.5542 58.9283C35.4958 59.4505 35.2558 59.9346 34.8763 60.2962C34.5203 60.6662 34.0352 60.8845 33.5214 60.906C33.0075 60.9274 32.5042 60.7503 32.1154 60.4112C31.0191 59.4399 30.1028 58.2822 29.4093 56.992C27.9428 53.9314 26.6674 50.7835 25.5903 47.5663C22.4787 37.0643 21.1655 26.1185 21.7065 15.1941C21.7145 14.8606 21.7043 14.5266 21.7027 14.1928L21.4579 14.1103Z" fill="white"/>
</svg>
