<svg width="100" height="47" fill="none" xmlns="http://www.w3.org/2000/svg"><path fill-rule="evenodd" clip-rule="evenodd" d="M9.195 13.793a4.598 4.598 0 100-9.195 4.598 4.598 0 000 9.195zm0 4.598a9.195 9.195 0 100-18.39 9.195 9.195 0 000 18.39z" fill="#F4D366"/><path d="M100 36.781a9.195 9.195 0 11-18.39 0 9.195 9.195 0 0118.39 0z" fill="#F4D366"/><path d="M34.065 4.333a9.195 9.195 0 0115.564 9.798L31.957 42.202a9.195 9.195 0 01-15.564-9.797L34.065 4.333zm33.333.219a9.195 9.195 0 0115.564 9.797L65.29 42.421a9.195 9.195 0 01-15.564-9.797L67.398 4.552z" fill="#fff"/></svg>