<svg width="63" height="20" fill="none" xmlns="http://www.w3.org/2000/svg"><g opacity=".2" fill="#fff"><path d="M27.208 19.712h-5.032L25.324.352h5.032l-3.148 19.36zM45.453.824C44.46.433 42.885 0 40.939 0c-4.97 0-8.47 2.636-8.492 6.405-.041 2.78 2.506 4.325 4.411 5.253 1.947.947 2.61 1.565 2.61 2.41-.02 1.297-1.574 1.895-3.023 1.895-2.01 0-3.086-.308-4.722-1.03l-.663-.31-.704 4.347c1.18.535 3.355 1.01 5.613 1.03 5.28 0 8.718-2.595 8.759-6.612.02-2.204-1.325-3.893-4.224-5.272-1.76-.886-2.839-1.484-2.839-2.39.021-.824.912-1.668 2.9-1.668 1.635-.041 2.837.35 3.748.741l.455.206.685-4.18zm6.689 12.029c.414-1.112 2.009-5.417 2.009-5.417-.021.042.414-1.132.662-1.853l.352 1.668s.953 4.634 1.16 5.602h-4.183zM58.354.352h-3.893c-1.2 0-2.112.35-2.63 1.606l-7.476 17.754h5.28l1.057-2.904h6.462c.144.68.6 2.904.6 2.904h4.66L58.354.352zm-40.382 0l-4.929 13.202-.538-2.678c-.911-3.09-3.77-6.446-6.958-8.115l4.514 16.93h5.322l7.91-19.34h-5.32z"/><path d="M8.467.352H.369l-.083.39c6.317 1.607 10.5 5.48 12.219 10.135l-1.76-8.898C10.455.742 9.565.392 8.466.352z"/></g></svg>