<svg width="16" height="10" fill="none" xmlns="http://www.w3.org/2000/svg"><path d="M1.654 0c-.153 0-.3.03-.433.084l6.436 5.733c.225.2.474.2.698 0L14.779.084A1.157 1.157 0 0014.346 0H1.654zM.512.992a1.188 1.188 0 00-.012.162v7.692c0 .158.033.308.09.445l4.441-4.267L.512.992zm14.976 0l-4.507 4.026 4.435 4.267a1.16 1.16 0 00.084-.439V1.154c0-.055-.005-.11-.012-.162zm-5.373 4.801l-.991.89a1.692 1.692 0 01-2.236 0l-.991-.884-4.375 4.195c.042.005.088.006.132.006h12.692c.042 0 .085-.002.126-.006l-4.357-4.2z" fill="#F4D366"/></svg>