<svg width="88" height="20" fill="none" xmlns="http://www.w3.org/2000/svg"><g opacity=".2"><path d="M77.618 0c1.59 0 3.103.363 4.461 1.012.213.096.428.21.64.325l-.931.822L80.392.726l-2.405 2.101-1.416-1.51-4.423 3.917 2.831 3.076-1.105.955 2.794 3.075-1.106.955 3.996 4.375 2.365-2.14 2.057 2.293a11.42 11.42 0 01-1.338.879A10.26 10.26 0 0177.637 20c-5.606 0-10.163-4.488-10.163-10.009C67.454 4.508 72.011 0 77.618 0zm-1.863 9.38l2.425-2.14 2.173 2.388-2.425 2.14-2.173-2.388zm1.727 4.126l2.405-2.159 2.192 2.388-2.424 2.14-2.173-2.369zM74.03 5.311l2.424-2.14 2.172 2.388-2.424 2.14L74.03 5.31zm4.441-1.147l1.804-1.604 1.63 1.776-1.804 1.624-1.63-1.796zm3.22 7.355l1.804-1.605 1.63 1.796-1.805 1.605-1.629-1.796zm1.59 3.61l1.805-1.604 1.628 1.777-1.803 1.623-1.63-1.795zm.738-8.252l1.203-1.07 1.085 1.185-1.202 1.07-1.086-1.185zm-1.552-3.534l1.203-1.089 1.086 1.204-1.203 1.07-1.086-1.185zm3.084 7.068l1.203-1.07 1.105 1.185-1.221 1.07-1.087-1.185zM80.14 7.756l1.805-1.605 1.629 1.777-1.804 1.605-1.63-1.777z" fill="#fff"/><mask id="mask0" maskUnits="userSpaceOnUse" x="0" y="4" width="11" height="10"><path d="M.286 4.155v9.234H10.89V4.155H.286z" fill="#fff"/></mask><g mask="url(#mask0)"><path d="M5.607 6.89h-.091l-1.718 6.499H2.394L.286 4.155h1.457l1.457 6.89h.091l1.691-6.89H6.14l1.808 6.89h.091l1.327-6.89h1.523L8.78 13.39H7.375l-1.768-6.5z" fill="#fff"/></g><path d="M12.737 9.459h2.978c-.065-1.368-.728-1.914-1.43-1.914-.794 0-1.406.612-1.548 1.914zm4.019 2.449v.99a4.593 4.593 0 01-2.303.599c-2.185 0-3.082-1.355-3.082-3.412 0-1.98 1.001-3.413 2.952-3.413 1.626 0 2.628 1.055 2.628 3.178v.482h-4.24c0 1.562.637 2.252 1.977 2.252.702 0 1.353-.247 2.068-.676zm3.221.544c.416.183.872.21 1.198.21.962 0 1.69-.6 1.69-2.71 0-1.653-.599-2.187-1.47-2.187-.52 0-.898.143-1.418.43v4.257zm.014-5.221c.389-.208 1.052-.482 1.755-.482 1.613 0 2.485 1.12 2.485 3.204 0 2.435-1.171 3.62-3.056 3.62-.69 0-1.757-.221-2.538-.639v-9.09l1.354-.324v3.71zm10.094 4.199h.066l2.783-7.28h1.614v9.235h-1.405V6.69h-.117l-2.654 6.695h-.832l-2.655-6.538h-.117v6.538h-1.17V4.15h1.574l2.913 7.28zm10.203-1.346c0-1.758-.715-2.5-1.6-2.5-.858 0-1.6.742-1.6 2.5 0 1.785.677 2.5 1.6 2.5s1.6-.715 1.6-2.5zm-4.566 0c0-2.28 1.25-3.412 2.966-3.412 1.718 0 2.966 1.133 2.966 3.412 0 2.227-1.184 3.413-2.966 3.413-1.782 0-2.966-1.186-2.966-3.413zm6.961-2.448c.585-.352 1.822-.964 3.317-.964 1.561 0 2.145.612 2.145 1.953v4.715h-1.352V8.925c0-1.029-.506-1.21-1.17-1.21-.52 0-1.184.234-1.587.468v5.157h-1.353V7.636zm8.326 1.823h2.978c-.064-1.368-.728-1.914-1.43-1.914-.794 0-1.404.612-1.548 1.914zm4.019 2.449v.99a4.59 4.59 0 01-2.303.599c-2.184 0-3.082-1.355-3.082-3.412 0-1.98 1.001-3.413 2.953-3.413 1.626 0 2.628 1.055 2.628 3.178v.482h-4.24c0 1.562.637 2.252 1.977 2.252.701 0 1.353-.247 2.067-.676zm5.599-5.236h1.393l-2.355 6.51c-.651 1.798-1.444 2.736-2.94 2.736V14.85c.886 0 1.431-.704 1.744-1.668l-2.499-6.51h1.431l1.665 4.792h.078l1.482-4.792z" fill="#fff"/></g></svg>