<svg width="14" height="18" fill="none" xmlns="http://www.w3.org/2000/svg"><path fill-rule="evenodd" clip-rule="evenodd" d="M5.538 2.487C4.965 1.277 4.913.224 2.986.856c-.782.263-1.199.789-1.667 1.368C-.348 4.066.12 8.118 2.569 12.012c2.5 3.841 5.99 5.946 8.334 5.157.73-.264 1.407-.369 1.928-1 1.354-1.526.469-2-.417-3-.781-.894-1.406-1.841-2.76-1.052-.21.263-1.355 1.42-1.928 1.315-.834-.42-2.032-1.63-2.865-2.946-.782-1.263-1.459-2.895-1.459-3.79.157-.578 1.615-1.157 1.98-1.262 1.25-.947.677-1.895.156-2.947z" fill="#F4D366"/></svg>