<svg width="58" height="62" fill="none" xmlns="http://www.w3.org/2000/svg"><path d="M21.458 14.11c-.377.917-.8 1.818-1.122 2.754-1.666 4.85-3.28 9.718-4.982 14.554a5.803 5.803 0 01-1.388 2.07c-.303.29-.696.47-1.115.508a1.876 1.876 0 01-1.192-.294 2.011 2.011 0 01-1.142-1.957 36.86 36.86 0 01.435-3.451 88.608 88.608 0 014.703-17.77 18.533 18.533 0 013.821-6.29 8.974 8.974 0 014.915-2.441 2.94 2.94 0 011.949.423 2.958 2.958 0 011.236 1.569 72.143 72.143 0 012.433 7.015 134.38 134.38 0 006.081 16.922c.685 1.58.227 2.98-1.102 3.306-1.152.283-2.078-.294-2.659-1.701-.654-1.585-1.325-3.165-1.912-4.774-1.29-3.534-2.532-7.085-3.793-10.629a2.963 2.963 0 00-.523-1.021c-.06.205-.102.415-.128.627a96.404 96.404 0 002.247 27.89 57.506 57.506 0 004.534 12.583 22.252 22.252 0 001.766 2.568c.212.299.486.558.676.868.29.44.417.967.358 1.49a2.231 2.231 0 01-.678 1.367c-.356.37-.84.589-1.355.61a2.012 2.012 0 01-1.406-.495 12.433 12.433 0 01-2.706-3.419 82.222 82.222 0 01-3.819-9.426 97.06 97.06 0 01-3.884-32.372c.009-.333-.002-.667-.003-1.001l-.245-.083z" fill="#FFCC62"/></svg>